<svg xmlns="http://www.w3.org/2000/svg" viewBox="0 0 43 24" role="img" aria-label="AutoBuilders AB logo">
<path fill="#fff" fill-rule="evenodd" d="M37.875,6.750 L36.938,5.188 L35.812,4.062 L34.312,3.125 L32.125,2.750 L27.750,2.750 L26.500,2.875 L25.812,3.562 L25.750,10.188 L25.188,10.750 L24.188,10.750 L23.750,10.312 L23.625,9.562 L23.750,3.688 L23.500,3.312 L23.188,3.312 L22.312,3.812 L19.938,6.250 L18.750,8.312 L18.750,8.938 L19.000,9.625 L19.750,10.750 L20.500,11.062 L22.438,10.875 L23.000,11.062 L23.250,11.438 L23.188,11.750 L22.750,12.125 L22.062,12.188 L21.375,12.000 L20.438,12.000 L19.688,12.375 L19.250,12.812 L19.000,13.312 L19.000,14.062 L19.375,15.438 L19.062,15.875 L18.438,16.125 L17.812,16.062 L17.188,15.438 L17.188,15.125 L17.688,13.938 L17.688,13.438 L16.938,12.562 L16.812,11.875 L17.125,10.562 L17.625,9.312 L17.562,9.188 L17.062,9.188 L16.375,9.500 L14.000,12.000 L5.438,20.125 L5.250,20.562 L5.375,20.812 L5.812,21.000 L17.500,20.938 L18.375,20.500 L19.688,21.000 L23.188,20.875 L23.688,20.375 L23.688,13.250 L24.125,12.500 L25.000,12.375 L25.625,12.750 L25.812,13.250 L25.750,19.250 L25.812,20.250 L26.188,20.812 L26.625,21.000 L32.000,21.062 L33.188,21.000 L33.875,20.812 L34.750,20.250 L35.312,20.062 L36.938,18.625 L37.875,17.062 L38.062,16.188 L38.000,14.438 L37.812,13.750 L37.188,12.875 L36.875,12.125 L36.938,11.312 L37.688,10.250 L38.000,9.438 L38.062,7.812 Z M18.312,18.250 L18.625,18.312 L18.812,18.625 L18.500,19.125 L18.000,18.625 Z M27.625,4.188 L32.562,4.125 L33.312,4.250 L35.438,5.562 L36.562,7.688 L36.625,8.500 L36.438,9.312 L36.125,9.750 L35.875,10.500 L35.125,11.250 L35.000,11.562 L35.062,12.375 L35.875,13.312 L36.500,14.625 L36.562,16.125 L35.688,17.875 L34.500,18.938 L33.125,19.562 L32.188,19.750 L28.250,19.750 L27.562,19.562 L27.312,19.250 L27.125,18.562 L27.125,13.375 L27.312,12.938 L28.062,12.562 L33.312,12.688 L33.688,12.438 L33.938,11.562 L33.875,11.062 L33.438,10.500 L29.688,10.500 L28.125,10.688 L27.750,10.625 L27.312,10.312 L27.125,9.625 L27.125,5.312 L27.250,4.500 Z"/>
</svg>
